<svg width="25" height="25" viewBox="0 0 25 25" fill="none" xmlns="http://www.w3.org/2000/svg">
<path d="M12.4995 0C5.60716 0 0 5.60746 0 12.4998C0 19.3925 5.60716 25 12.4995 25C19.3919 25 24.9994 19.3925 24.9994 12.4998C24.9994 5.60746 19.3916 0 12.4995 0ZM12.4995 23.1928C6.60384 23.1928 1.80691 18.3959 1.80691 12.4998C1.80691 6.60384 6.60353 1.80721 12.4995 1.80721C18.3956 1.80721 23.1922 6.60384 23.1922 12.4998C23.1922 18.3959 18.3956 23.1928 12.4995 23.1928Z" fill="black"/>
<path d="M16.1181 13.6503C16.1133 13.6503 16.109 13.6503 16.1042 13.6503L13.4049 13.6906V6.62626C13.4049 6.12717 13.0004 5.72266 12.5013 5.72266C12.0022 5.72266 11.5977 6.12717 11.5977 6.62626V14.6081C11.5977 14.6099 11.5983 14.6117 11.5983 14.6135C11.5983 14.6165 11.5977 14.6192 11.5977 14.6216C11.5983 14.6584 11.6052 14.693 11.61 14.7283C11.613 14.7503 11.6133 14.7728 11.6175 14.7945C11.6257 14.8334 11.6392 14.8695 11.6522 14.906C11.6588 14.925 11.663 14.9448 11.6708 14.9629C11.6865 15 11.7076 15.0337 11.7278 15.0683C11.7371 15.0837 11.744 15.1006 11.754 15.1156C11.7769 15.149 11.8043 15.1789 11.8314 15.2093C11.8428 15.2219 11.8522 15.2364 11.8642 15.2487C11.8934 15.2777 11.9263 15.3021 11.9591 15.3271C11.9724 15.337 11.9841 15.349 11.9977 15.3584C12.0332 15.3825 12.072 15.4015 12.1109 15.4201C12.1245 15.4265 12.1365 15.4355 12.1504 15.4412C12.1955 15.4602 12.2437 15.4734 12.2925 15.4852C12.3016 15.4873 12.31 15.4915 12.3193 15.4933C12.3778 15.5051 12.4383 15.5117 12.5004 15.5117C12.5049 15.5117 12.5097 15.5117 12.5142 15.5117L16.131 15.4575C16.6298 15.4499 17.0283 15.0391 17.0211 14.5403C17.0142 14.0461 16.6108 13.6503 16.1181 13.6503Z" fill="black"/>
</svg>
