<svg width="25" height="26" viewBox="0 0 25 26" fill="none" xmlns="http://www.w3.org/2000/svg">
<path d="M12.5 0.0605469C5.6075 0.0605469 0 5.66805 0 12.5605C0 19.453 5.6075 25.0101 12.5 25.0101C19.3925 25.0101 25 19.453 25 12.5605C25 5.66805 19.3925 0.0605469 12.5 0.0605469ZM13.3333 12.9264C13.3333 13.3864 12.96 13.7597 12.5 13.7597H5.83333C5.37333 13.7597 5 13.3864 5 12.9264C5 12.4664 5.37333 12.093 5.83333 12.093H11.6667V2.92638C11.6667 2.46638 12.04 2.09305 12.5 2.09305C12.96 2.09305 13.3333 2.46638 13.3333 2.92638V12.9264Z" fill="black"/>
</svg>
