<svg width="25" height="21" viewBox="0 0 25 21" fill="none" xmlns="http://www.w3.org/2000/svg">
<path d="M23.3624 0.441406H1.63755C0.733133 0.441406 0 1.17454 0 2.07896V15.8344C0 16.7388 0.733188 17.472 1.63755 17.472H8.84825L11.2468 20.3237C11.558 20.6936 12.0166 20.9072 12.5001 20.9072C12.9835 20.9072 13.4421 20.6936 13.7533 20.3237L16.1519 17.472H23.3624C24.2668 17.472 25 16.7388 25 15.8344V2.07896C25 1.17454 24.2668 0.441406 23.3624 0.441406ZM17.681 13.5418H4.5226C4.07041 13.5418 3.70382 13.1752 3.70382 12.7231C3.70382 12.2709 4.07041 11.9043 4.5226 11.9043H17.681C18.1332 11.9043 18.4998 12.2709 18.4998 12.7231C18.4998 13.1752 18.1332 13.5418 17.681 13.5418ZM3.70382 9.02334C3.70382 8.57116 4.07041 8.20456 4.5226 8.20456H14.6265C15.0787 8.20456 15.4453 8.57116 15.4453 9.02334C15.4453 9.47552 15.0787 9.84212 14.6265 9.84212H4.5226C4.07041 9.84212 3.70382 9.47552 3.70382 9.02334ZM20.4774 6.14228H4.5226C4.07041 6.14228 3.70382 5.77569 3.70382 5.3235C3.70382 4.87132 4.07041 4.50473 4.5226 4.50473H20.4773C20.9295 4.50473 21.2961 4.87132 21.2961 5.3235C21.2962 5.77569 20.9296 6.14228 20.4774 6.14228Z" fill="black"/>
</svg>
