<svg width="26" height="32" viewBox="0 0 26 32" fill="none" xmlns="http://www.w3.org/2000/svg">
<path d="M20.7514 22.7006H17.121L15.8931 20.1782C19.3044 19.8595 21.6522 19.2 21.7805 19.1634C22.0847 19.076 22.2636 18.7615 22.1827 18.4554C22.1654 18.3901 20.4579 11.9013 20.4579 8.72072V8.24834C20.4579 3.80114 16.9191 0.164573 12.509 0.00552058C12.4828 0.00164125 12.4561 0 12.4292 0H12.2078C12.1808 0 12.1541 0.00164125 12.128 0.00566978C7.74433 0.163528 4.22131 3.75802 4.17923 8.16896C4.17893 8.17582 4.17893 8.18313 4.17893 8.19V8.72087C4.17893 11.9015 2.47144 18.3904 2.45413 18.4556C2.37326 18.7616 2.55215 19.0761 2.85638 19.1636C2.98559 19.2004 5.3675 19.8687 8.81875 20.1847L7.59438 22.7008H4.4669C2.06411 22.7008 0.109375 24.6504 0.109375 27.0475V30.8135C0.109375 31.1349 0.369737 31.3949 0.690826 31.3949C1.01191 31.3949 1.27228 31.1349 1.27228 30.8135V27.0475C1.27228 25.292 2.70554 23.8635 4.46705 23.8635H7.11439L9.32769 28.782C9.40632 28.9563 9.56538 29.0812 9.75322 29.1154C9.78814 29.1216 9.82305 29.1251 9.85797 29.1251C10.0108 29.1251 10.1592 29.0649 10.269 28.9547L12.3187 26.9053L14.3683 28.9547C14.4781 29.0648 14.6265 29.1251 14.7793 29.1251C14.8142 29.1251 14.8492 29.1216 14.8841 29.1154C15.0719 29.0813 15.231 28.9565 15.3096 28.782L17.5229 23.8635H20.7517C22.5132 23.8635 23.9465 25.292 23.9465 27.0475V30.8135C23.9465 31.1349 24.2068 31.3949 24.5279 31.3949C24.849 31.3949 25.1094 31.1349 25.1094 30.8135V27.0475C25.1089 24.6503 23.154 22.7006 20.7514 22.7006ZM3.72431 18.1854C4.14954 16.4985 5.34184 11.5182 5.34184 8.72072V8.24834C5.34184 4.37841 8.46141 1.22288 12.3185 1.16395C16.1756 1.22303 19.2952 4.37856 19.2952 8.24849V8.72087C19.2952 11.5182 20.4875 16.4986 20.9127 18.1854C19.6437 18.4896 16.3082 19.1858 12.3185 19.1858C8.32877 19.1858 4.99329 18.4898 3.72431 18.1854ZM10.0424 27.5368L8.88933 24.9745L11.1601 26.4194L10.0424 27.5368ZM14.5946 27.5368L13.4769 26.4194L15.7477 24.9745L14.5946 27.5368ZM12.3185 25.7781L8.55526 23.3837L10.0664 20.278C10.7859 20.3211 11.5365 20.3484 12.3185 20.3484C13.1281 20.3484 13.9041 20.3191 14.6462 20.2732L16.1417 23.3455L12.3185 25.7781Z" fill="black"/>
</svg>
