<svg width="26" height="26" viewBox="0 0 26 26" fill="none" xmlns="http://www.w3.org/2000/svg">
<path d="M25.4707 16.5273L23.5401 14.9647C23.6315 14.4345 23.6786 13.8932 23.6786 13.3519C23.6786 12.8105 23.6315 12.2692 23.5401 11.739L25.4707 10.1764C25.6163 10.0584 25.7205 9.90123 25.7695 9.72578C25.8184 9.55033 25.8098 9.36492 25.7448 9.19422L25.7182 9.12167C25.1868 7.71539 24.3909 6.41176 23.3692 5.27374L23.3161 5.21515C23.1922 5.07717 23.027 4.97798 22.8423 4.93066C22.6576 4.88334 22.4621 4.8901 22.2816 4.95006L19.8853 5.75648C19.0011 5.07005 18.0137 4.52872 16.9467 4.14922L16.484 1.77741C16.4491 1.59894 16.3576 1.43476 16.2218 1.30667C16.086 1.17858 15.9122 1.09264 15.7236 1.06028L15.644 1.04633C14.1084 0.784036 12.4932 0.784036 10.9576 1.04633L10.878 1.06028C10.6894 1.09264 10.5156 1.17858 10.3798 1.30667C10.2439 1.43476 10.1525 1.59894 10.1176 1.77741L9.65188 4.16039C8.59343 4.53996 7.60775 5.081 6.73394 5.76206L4.32 4.95006C4.13952 4.88963 3.94389 4.88262 3.75909 4.92997C3.5743 4.97732 3.40911 5.07678 3.28546 5.21515L3.23241 5.27374C2.21185 6.41256 1.41614 7.71598 0.883315 9.12167L0.856788 9.19422C0.724154 9.54301 0.833209 9.93367 1.1309 10.1764L3.08504 11.7558C2.99367 12.2804 2.94945 12.8161 2.94945 13.3491C2.94945 13.8848 2.99367 14.4206 3.08504 14.9424L1.1309 16.5217C0.985283 16.6398 0.881064 16.7969 0.832101 16.9724C0.783137 17.1478 0.791747 17.3332 0.856788 17.5039L0.883315 17.5765C1.4168 18.9828 2.20671 20.2804 3.23241 21.4244L3.28546 21.483C3.40941 21.621 3.57461 21.7202 3.75929 21.7675C3.94397 21.8148 4.13946 21.8081 4.32 21.7481L6.73394 20.9361C7.61227 21.6197 8.59376 22.1611 9.65188 22.5378L10.1176 24.9208C10.1525 25.0992 10.2439 25.2634 10.3798 25.3915C10.5156 25.5196 10.6894 25.6055 10.878 25.6379L10.9576 25.6518C12.5073 25.9155 14.0943 25.9155 15.644 25.6518L15.7236 25.6379C15.9122 25.6055 16.086 25.5196 16.2218 25.3915C16.3576 25.2634 16.4491 25.0992 16.484 24.9208L16.9467 22.5489C18.0133 22.1704 19.0062 21.6273 19.8853 20.9417L22.2816 21.7481C22.462 21.8085 22.6577 21.8155 22.8425 21.7682C23.0273 21.7208 23.1925 21.6214 23.3161 21.483L23.3692 21.4244C24.3949 20.2776 25.1848 18.9828 25.7182 17.5765L25.7448 17.5039C25.8774 17.1607 25.7684 16.7701 25.4707 16.5273V16.5273ZM21.4474 12.0683C21.5211 12.4896 21.5594 12.9222 21.5594 13.3547C21.5594 13.7872 21.5211 14.2197 21.4474 14.641L21.2529 15.76L23.4546 17.543C23.1209 18.271 22.6995 18.9601 22.199 19.5967L19.4638 18.6787L18.5383 19.3986C17.8339 19.9455 17.0499 20.3752 16.201 20.6766L15.0781 21.0756L14.5505 23.7823C13.718 23.8716 12.8776 23.8716 12.0452 23.7823L11.5176 21.07L10.4035 20.6654C9.56346 20.3641 8.78239 19.9344 8.08385 19.3902L7.15837 18.6675L4.40548 19.5939C3.90442 18.9549 3.48588 18.2657 3.14988 17.5402L5.37518 15.7404L5.1836 14.6243C5.11286 14.2085 5.07454 13.7788 5.07454 13.3547C5.07454 12.9277 5.10991 12.5008 5.1836 12.085L5.37518 10.9689L3.14988 9.1691C3.48294 8.44082 3.90442 7.75439 4.40548 7.11539L7.15837 8.04179L8.08385 7.31909C8.78239 6.77497 9.56346 6.34525 10.4035 6.04389L11.5205 5.64486L12.0481 2.93262C12.8764 2.84333 13.7223 2.84333 14.5534 2.93262L15.081 5.63928L16.204 6.03831C17.0499 6.33967 17.8369 6.76938 18.5413 7.3163L19.4668 8.03621L22.202 7.11818C22.703 7.75718 23.1216 8.4464 23.4576 9.17189L21.2559 10.9549L21.4474 12.0683ZM13.3037 8.16457C10.4388 8.16457 8.11628 10.3634 8.11628 13.0756C8.11628 15.7879 10.4388 17.9867 13.3037 17.9867C16.1686 17.9867 18.4912 15.7879 18.4912 13.0756C18.4912 10.3634 16.1686 8.16457 13.3037 8.16457ZM15.6381 15.2856C15.3319 15.5763 14.9681 15.8068 14.5674 15.9639C14.1668 16.121 13.7373 16.2015 13.3037 16.2008C12.4225 16.2008 11.5942 15.8744 10.9694 15.2856C10.6623 14.9957 10.4188 14.6513 10.2529 14.272C10.087 13.8927 10.0019 13.4861 10.0026 13.0756C10.0026 12.2413 10.3475 11.4572 10.9694 10.8657C11.5942 10.2741 12.4225 9.95041 13.3037 9.95041C14.185 9.95041 15.0132 10.2741 15.6381 10.8657C15.9451 11.1555 16.1886 11.5 16.3545 11.8793C16.5204 12.2585 16.6055 12.6651 16.6048 13.0756C16.6048 13.9099 16.26 14.694 15.6381 15.2856Z" fill="black"/>
</svg>
