<svg width="25" height="33" viewBox="0 0 25 33" fill="none" xmlns="http://www.w3.org/2000/svg">
<path d="M22.2902 23.3092L17.0984 20.7136C16.6087 20.4685 16.3043 19.9761 16.3043 19.4283V17.5908C16.4288 17.4386 16.5598 17.2652 16.6951 17.0739C17.3685 16.1228 17.9082 15.0641 18.3005 13.9223C19.0674 13.5707 19.5652 12.8125 19.5652 11.9565V9.78261C19.5652 9.25924 19.3696 8.75217 19.0217 8.35598V5.46522C19.0522 5.1663 19.1717 3.38696 17.8848 1.91902C16.7685 0.645652 14.9571 0 12.5 0C10.0429 0 8.23152 0.645652 7.11522 1.91848C5.82826 3.38641 5.94783 5.1663 5.97826 5.46522V8.35598C5.63043 8.75217 5.43478 9.25924 5.43478 9.78261V11.9565C5.43478 12.6179 5.73533 13.2348 6.24837 13.6462C6.7462 15.6174 7.78804 17.1027 8.15217 17.5793V19.3777C8.15217 19.9038 7.86522 20.3864 7.4038 20.6386L2.55543 23.2832C0.978804 24.1435 0 25.7924 0 27.588V29.3478C0 31.9272 8.17663 32.6087 12.5 32.6087C16.8234 32.6087 25 31.9272 25 29.3478V27.694C25 25.8255 23.9614 24.1451 22.2902 23.3092Z" fill="black"/>
</svg>
