<svg width="20" height="25" viewBox="0 0 20 25" fill="none" xmlns="http://www.w3.org/2000/svg">
<path d="M18.1534 0H6.14994C5.83218 0 5.52742 0.126204 5.30269 0.35103L0.35103 5.3025C0.126301 5.52723 0 5.83198 0 6.14975V23.6637C0 24.3254 0.536524 24.8619 1.19828 24.8619H18.1533C18.815 24.8619 19.3516 24.3254 19.3516 23.6637V1.19828C19.3517 0.536524 18.8151 0 18.1534 0ZM5.80066 3.24211V5.80052H3.24221L5.80066 3.24211ZM16.9551 22.4654H2.39661V8.19712H6.99894C7.6607 8.19712 8.19722 7.6606 8.19722 6.99884V2.39656H16.9551V22.4654Z" fill="black"/>
<path d="M5.40234 11.167C5.40234 11.8288 5.93887 12.3653 6.60062 12.3653H13.4302C14.0919 12.3653 14.6285 11.8288 14.6285 11.167C14.6285 10.5053 14.0919 9.96875 13.4302 9.96875H6.60058C5.93882 9.9688 5.40234 10.5053 5.40234 11.167Z" fill="black"/>
<path d="M13.4302 13.9141H6.60062C5.93887 13.9141 5.40234 14.4506 5.40234 15.1123C5.40234 15.7741 5.93887 16.3106 6.60062 16.3106H13.4302C14.0919 16.3106 14.6285 15.7741 14.6285 15.1123C14.6285 14.4506 14.092 13.9141 13.4302 13.9141Z" fill="black"/>
<path d="M13.4302 17.8613H6.60062C5.93887 17.8613 5.40234 18.3979 5.40234 19.0596C5.40234 19.7214 5.93887 20.2579 6.60062 20.2579H13.4302C14.0919 20.2579 14.6285 19.7214 14.6285 19.0596C14.6285 18.3979 14.092 17.8613 13.4302 17.8613Z" fill="black"/>
</svg>
