<svg width="25" height="21" viewBox="0 0 25 21" fill="none" xmlns="http://www.w3.org/2000/svg">
<path d="M23.3624 0.441406H1.63755C0.733188 0.441406 0 1.17459 0 2.07896V15.8344C0 16.7388 0.733188 17.472 1.63755 17.472H8.84825L11.2468 20.3237C11.558 20.6936 12.0166 20.9072 12.5001 20.9072C12.9835 20.9072 13.4421 20.6936 13.7533 20.3237L16.1519 17.472H23.3624C24.2669 17.472 25 16.7388 25 15.8345V2.07902C25 1.17459 24.2669 0.441406 23.3624 0.441406ZM23.3624 15.8344H15.3894L12.5 19.2696L9.6107 15.8344H1.63755V2.07896H23.3624V15.8344Z" fill="black"/>
<path d="M4.66253 6.744H12.1407C12.5929 6.744 12.9595 6.37741 12.9595 5.92522C12.9595 5.47304 12.5929 5.10645 12.1407 5.10645H4.66253C4.21034 5.10645 3.84375 5.47304 3.84375 5.92522C3.84375 6.37741 4.21034 6.744 4.66253 6.744Z" fill="black"/>
<path d="M3.875 10.9477C3.875 11.3999 4.24159 11.7665 4.69378 11.7665H20.3051C20.7573 11.7665 21.1239 11.3999 21.1239 10.9477C21.1239 10.4955 20.7573 10.1289 20.3051 10.1289H4.69378C4.24159 10.1289 3.875 10.4955 3.875 10.9477Z" fill="black"/>
</svg>
