<svg width="26" height="26" viewBox="0 0 26 26" fill="none" xmlns="http://www.w3.org/2000/svg">
<path d="M13.1142 9.14604C12.2321 9.14604 11.4061 9.47016 10.7807 10.0625C10.1583 10.6549 9.81312 11.4372 9.81312 12.2727C9.81312 13.1081 10.1583 13.8904 10.7807 14.4828C11.4061 15.0724 12.2321 15.3993 13.1142 15.3993C13.9962 15.3993 14.8222 15.0724 15.4476 14.4828C16.0701 13.8904 16.4152 13.1081 16.4152 12.2727C16.4152 11.4372 16.0701 10.6549 15.4476 10.0625C15.1422 9.77097 14.7786 9.53982 14.378 9.38249C13.9774 9.22516 13.5478 9.14479 13.1142 9.14604V9.14604ZM25.277 15.7262L23.3477 14.1643C23.4392 13.6334 23.4864 13.0913 23.4864 12.5521C23.4864 12.0128 23.4392 11.468 23.3477 10.9399L25.277 9.37796C25.4228 9.25978 25.5271 9.10239 25.5761 8.9267C25.6251 8.75102 25.6165 8.56536 25.5514 8.39443L25.5248 8.32178C24.9939 6.91548 24.1983 5.61192 23.1766 4.47428L23.1235 4.41561C22.9995 4.27745 22.8341 4.17813 22.6493 4.13074C22.4644 4.08336 22.2688 4.09013 22.0881 4.15017L19.6927 4.95767C18.8077 4.27031 17.8224 3.72826 16.7545 3.35105L16.2913 0.978848C16.2564 0.800143 16.1649 0.635737 16.0289 0.507474C15.893 0.379212 15.719 0.293163 15.5302 0.26076L15.4506 0.24679C13.9166 -0.015857 12.3 -0.015857 10.766 0.24679L10.6863 0.26076C10.4975 0.293163 10.3236 0.379212 10.1876 0.507474C10.0517 0.635737 9.96016 0.800143 9.92522 0.978848L9.45912 3.36223C8.40133 3.74244 7.41593 4.28318 6.54157 4.96325L4.12847 4.15017C3.94782 4.08965 3.75202 4.08264 3.56707 4.13005C3.38211 4.17746 3.21677 4.27706 3.09301 4.41561L3.03991 4.47428C2.02008 5.61314 1.22469 6.91636 0.691713 8.32178L0.665163 8.39443C0.532413 8.74369 0.641563 9.13487 0.939513 9.37796L2.89241 10.9566C2.80096 11.4819 2.75671 12.0184 2.75671 12.5493C2.75671 13.0857 2.80096 13.6222 2.89241 14.1419L0.945413 15.7206C0.79967 15.8388 0.69536 15.9962 0.646353 16.1718C0.597347 16.3475 0.605965 16.5332 0.671063 16.7041L0.697613 16.7768C1.23156 18.1822 2.01921 19.4815 3.04581 20.6243L3.09891 20.6829C3.22297 20.8211 3.38832 20.9204 3.57316 20.9678C3.75801 21.0152 3.95367 21.0084 4.13437 20.9484L6.54747 20.1353C7.42657 20.8199 8.40597 21.3619 9.46502 21.7363L9.93112 24.1197C9.96606 24.2984 10.0576 24.4628 10.1935 24.5911C10.3295 24.7193 10.5034 24.8054 10.6922 24.8378L10.7719 24.8518C12.321 25.1158 13.9074 25.1158 15.4565 24.8518L15.5361 24.8378C15.7249 24.8054 15.8989 24.7193 16.0348 24.5911C16.1708 24.4628 16.2623 24.2984 16.2972 24.1197L16.7604 21.7475C17.8283 21.3675 18.8136 20.8282 19.6986 20.1409L22.094 20.9484C22.2746 21.0089 22.4704 21.0159 22.6554 20.9685C22.8403 20.9211 23.0057 20.8215 23.1294 20.6829L23.1825 20.6243C24.2091 19.4759 24.9968 18.1822 25.5307 16.7768L25.5573 16.7041C25.6841 16.3577 25.575 15.9693 25.277 15.7262ZM13.1142 17.1847C10.2497 17.1847 7.92807 14.9857 7.92807 12.2727C7.92807 9.55957 10.2497 7.36061 13.1142 7.36061C15.9786 7.36061 18.3003 9.55957 18.3003 12.2727C18.3003 14.9857 15.9786 17.1847 13.1142 17.1847Z" fill="black"/>
</svg>
