<svg width="20" height="25" viewBox="0 0 20 25" fill="none" xmlns="http://www.w3.org/2000/svg">
<path d="M18.2541 0H7.88115V7.0377C7.88115 7.50352 7.50352 7.88115 7.0377 7.88115H0V23.7951C0 24.4605 0.539502 25 1.20493 25H18.2541C18.9195 25 19.459 24.4605 19.459 23.7951V1.20493C19.459 0.539502 18.9195 0 18.2541 0ZM13.5049 20.008H6.6374C6.17158 20.008 5.79395 19.6303 5.79395 19.1645C5.79395 18.6987 6.17158 18.321 6.6374 18.321H13.5049C13.9707 18.321 14.3483 18.6987 14.3483 19.1645C14.3483 19.6303 13.9707 20.008 13.5049 20.008ZM13.5049 16.0401H6.6374C6.17158 16.0401 5.79395 15.6625 5.79395 15.1967C5.79395 14.7309 6.17158 14.3532 6.6374 14.3532H13.5049C13.9707 14.3532 14.3483 14.7309 14.3483 15.1967C14.3483 15.6625 13.9707 16.0401 13.5049 16.0401ZM13.5049 12.0724H6.6374C6.17158 12.0724 5.79395 11.6948 5.79395 11.229C5.79395 10.7631 6.17158 10.3855 6.6374 10.3855H13.5049C13.9707 10.3855 14.3483 10.7631 14.3483 11.229C14.3483 11.6948 13.9707 12.0724 13.5049 12.0724Z" fill="black"/>
<path d="M6.18408 0C5.86455 0 5.55811 0.126904 5.33213 0.352979L0.352979 5.33193C0.127002 5.55791 0 5.86436 0 6.18389V6.19419H6.19434V0H6.18408Z" fill="black"/>
</svg>
